<svg width="122" height="125" viewBox="0 0 122 125" fill="none" xmlns="http://www.w3.org/2000/svg">
<path d="M121.161 96.3661C121.162 101.279 119.858 106.101 117.389 110.32C114.92 114.539 111.378 117.998 107.138 120.33C102.897 122.661 98.1174 123.779 93.3046 123.565C88.4917 123.35 83.8255 121.811 79.8009 119.111C78.1321 117.849 76.5387 116.487 75.0292 115.032C71.1836 111.725 65.7943 110.58 60.405 110.58C55.549 110.58 50.6509 111.367 47.058 114.158C45.3321 116.199 43.3169 117.965 41.0792 119.397C41.033 119.419 40.9904 119.448 40.9529 119.483V119.497C40.9137 119.526 40.8714 119.55 40.8266 119.569C40.7985 119.598 40.7845 119.598 40.7845 119.598C36.6006 122.217 31.7854 123.6 26.8761 123.591H26.6936C21.2203 123.589 15.8796 121.872 11.3949 118.672C6.91014 115.472 3.49798 110.944 1.62034 105.7C-0.257277 100.456 -0.509638 94.751 0.897455 89.3564C2.30455 83.9616 5.30311 79.1384 9.48712 75.5392C10.9822 73.4511 11.9902 71.0425 12.4344 68.4968C12.4382 68.4009 12.4475 68.3052 12.4625 68.2105C12.8274 66.1563 13.0013 64.0716 12.9817 61.9839C12.9817 56.516 11.9011 51.0625 8.70117 47.1834C7.18734 45.5738 5.77627 43.867 4.47671 42.0732C1.85891 37.962 0.377601 33.2064 0.189038 28.3081C0.000474837 23.4099 1.11164 18.5504 3.40535 14.2425C5.69907 9.93462 9.09027 6.33802 13.2212 3.83205C17.3521 1.3261 22.0696 0.00369541 26.8761 0.00439481H27.1708C34.2007 0.0869154 40.9151 2.99323 45.8573 8.09274C50.7996 13.1923 53.5709 20.0737 53.5701 27.2439V27.3727C53.5479 32.6458 52.0215 37.7984 49.1772 42.202C47.9373 43.9018 46.6017 45.5267 45.1773 47.0687C41.9353 50.9908 40.8126 56.473 40.8126 61.9839C40.8017 63.7462 40.9191 65.5069 41.1634 67.2514C41.516 70.4456 42.7197 73.4803 44.644 76.0259C45.2335 76.7559 45.865 77.4573 46.4966 78.1587C46.5808 78.216 46.651 78.2875 46.7212 78.3448C50.3 81.3937 55.3946 82.1952 60.405 82.1952C60.9945 82.1952 61.5979 82.1809 62.1874 82.1523C66.9171 81.9233 71.5205 80.7352 74.9028 77.8152C76.4865 76.2764 78.1648 74.8422 79.9273 73.521C83.2382 71.3288 86.9842 69.912 90.8959 69.3725C94.8078 68.833 98.7884 69.184 102.551 70.4005C102.582 70.4088 102.611 70.4234 102.635 70.4436C108.018 72.2048 112.713 75.6646 116.043 80.3238C119.373 84.983 121.165 90.6007 121.161 96.3661Z" fill="url(#paint0_linear_2_2659)"/>
<path d="M121.161 27.2397C121.162 32.5651 119.632 37.7738 116.76 42.2216C113.888 46.6692 109.801 50.1608 105.004 52.2643C100.207 54.3677 94.9112 54.9908 89.7707 54.0565C84.6302 53.1221 79.8711 50.6714 76.082 47.0073L76.0397 46.9644C73.4752 44.4778 71.4232 41.494 70.0037 38.1881C68.5842 34.8822 67.8259 31.3206 67.7733 27.7121V27.6591C67.7616 27.5211 67.757 27.3826 67.7594 27.244C67.7591 22.4994 68.974 17.8369 71.2838 13.7184C73.5936 9.59988 76.9183 6.16817 80.9283 3.7631C84.9384 1.35804 89.4951 0.0630453 94.1467 0.00634037C98.7985 -0.0503646 103.384 1.13318 107.449 3.43981C107.548 3.51138 107.59 3.54002 107.59 3.54002C112.251 6.21941 116.013 10.27 118.382 15.163C118.396 15.1946 118.415 15.2237 118.439 15.2489C120.234 18.9807 121.165 23.0829 121.161 27.2397Z" fill="url(#paint1_linear_2_2659)"/>
<g style="mix-blend-mode:screen" opacity="0.6">
<g style="mix-blend-mode:screen" opacity="0.6">
<path d="M30.0456 0.386462H29.0351C28.3755 0.34352 27.421 0.429428 26.214 0.500998C24.7725 0.651647 23.3425 0.900294 21.9334 1.24531C20.1278 1.6938 18.3698 2.32184 16.6844 3.12043C13.4337 4.64841 10.5284 6.84644 8.1516 9.57601C5.77479 12.3056 3.97797 15.5076 2.87432 18.9803C2.04604 21.5393 1.61973 24.2155 1.6112 26.9103C1.55446 29.6007 1.89991 32.2845 2.63571 34.8689C3.34404 37.3626 4.42833 39.7289 5.84967 41.8827C7.2391 43.9296 9.17592 45.6902 10.5654 47.9518C11.8037 50.0175 12.6422 52.306 13.0354 54.6937C13.389 56.648 13.5583 58.6325 13.5407 60.6197C13.55 62.1386 13.4421 63.6557 13.2179 65.1573C13.0859 66.1183 12.8937 67.0697 12.6425 68.0057C12.5021 68.4781 12.4039 68.7787 12.3618 68.9218C12.3758 68.8503 12.4039 68.7071 12.4319 68.4924C12.4357 68.3965 12.4451 68.3009 12.46 68.2061C12.825 66.1519 12.9989 64.0671 12.9793 61.9795C12.9793 56.5116 11.8986 51.058 8.69871 47.1789C7.18487 45.5694 5.77386 43.8625 4.47429 42.0688C1.85649 37.9575 0.375141 33.202 0.186577 28.3038C-0.00198593 23.4054 1.10922 18.5459 3.40294 14.2381C5.69665 9.93023 9.08785 6.33358 13.2188 3.82762C17.3497 1.32166 22.0673 -0.000699118 26.8736 2.77288e-07H27.1683C27.7988 0.0422429 28.4265 0.118698 29.049 0.229029C29.6946 0.329227 30.0456 0.386462 30.0456 0.386462Z" fill="white"/>
</g>
</g>
<g style="mix-blend-mode:multiply" opacity="0.25">
<g style="mix-blend-mode:multiply" opacity="0.25">
<path d="M41.1629 67.3091L41.0225 66.8368C40.9313 66.529 40.791 66.0781 40.6604 65.4869C40.2781 63.8554 40.0502 62.1903 39.9798 60.5143C39.8544 58.1021 40.0815 55.6843 40.6534 53.3401C40.9738 51.9777 41.4446 50.6567 42.0569 49.4023C42.7261 48.1324 43.5178 46.9336 44.4203 45.8238C45.3087 44.7374 46.2827 43.754 47.0238 42.8079C47.7926 41.8475 48.5028 40.8398 49.15 39.7905C49.7503 38.7907 50.2977 37.7585 50.7893 36.6987C51.2356 35.6967 51.6314 34.6947 51.957 33.7657C52.4743 32.2389 52.8917 30.6785 53.2061 29.0951C53.4376 27.9328 53.5429 27.25 53.5429 27.25C53.6503 27.8728 53.7238 28.5012 53.7632 29.1323C53.8771 30.8148 53.7957 32.5051 53.5204 34.1679C53.1398 36.5591 52.3915 38.8741 51.303 41.0272C50.6915 42.2558 49.9713 43.4248 49.1514 44.5198C48.2785 45.6793 47.376 46.6297 46.5831 47.6474C45.7705 48.5949 45.053 49.623 44.4414 50.7163C43.8724 51.7855 43.3952 52.9028 43.0155 54.0558C42.3266 56.1777 41.8462 58.3642 41.5811 60.583C41.3383 62.5612 41.2499 64.2474 41.2092 65.4354L41.1629 67.3091Z" fill="black"/>
</g>
</g>
<g style="mix-blend-mode:screen" opacity="0.6">
<g style="mix-blend-mode:screen" opacity="0.6">
<path d="M102.636 70.4394C102.481 70.4251 101.808 70.3105 100.769 70.1817C100.166 70.1101 99.4498 70.0529 98.6218 70.0099C97.7057 69.9547 96.7874 69.9498 95.871 69.9956C95.3657 70.0243 94.7482 70.0386 94.2991 70.0815C93.7377 70.1388 93.1763 70.1817 92.629 70.2533C91.4485 70.4261 90.2774 70.6602 89.1203 70.9547C87.8953 71.2697 86.6907 71.6616 85.5134 72.1284C84.3053 72.6048 83.1367 73.1792 82.0187 73.8461C80.8982 74.4925 79.8368 75.2399 78.8469 76.0791C77.8645 76.9379 76.8399 77.8397 75.7733 78.6985C74.727 79.5461 73.5756 80.2487 72.3488 80.7884C71.2742 81.2613 70.1549 81.621 69.0086 81.8619C68.0602 82.0665 67.0987 82.2005 66.1314 82.2627C65.3887 82.3171 64.6433 82.322 63.8999 82.277C62.6789 82.2341 61.9912 82.1911 61.9912 82.1911L62.1877 82.1482C66.9174 81.9192 71.5208 80.7311 74.9031 77.8111C76.4868 76.2723 78.1649 74.8379 79.9276 73.5169C83.2385 71.3247 86.9845 69.9079 90.8962 69.3684C94.8081 68.8289 98.7886 69.1799 102.551 70.3964C102.582 70.4047 102.611 70.4193 102.636 70.4394Z" fill="white"/>
</g>
</g>
<g style="mix-blend-mode:multiply" opacity="0.25">
<g style="mix-blend-mode:multiply" opacity="0.25">
<path d="M40.7744 119.596C40.7744 119.596 41.18 119.321 41.8972 118.757C42.9301 117.94 43.91 117.055 44.8304 116.108C45.4424 115.507 45.9939 114.775 46.7757 114.008C47.6204 113.214 48.5693 112.544 49.5952 112.017C52.0639 110.823 54.717 110.076 57.4364 109.808C60.6497 109.404 63.9054 109.522 67.0825 110.158C67.9582 110.331 68.8239 110.554 69.6761 110.823C70.5546 111.105 71.4078 111.464 72.2262 111.895C73.8682 112.793 75.4196 113.854 76.8576 115.063C78.3046 116.22 79.7095 117.4 81.2 118.378C81.9365 118.87 82.7083 119.305 83.5087 119.679C84.3245 120.075 85.1614 120.424 86.0153 120.724C89.4904 121.953 93.185 122.401 96.8458 122.038L97.5307 121.967L98.2058 121.865C98.6844 121.791 99.1882 121.722 99.598 121.619C100.487 121.433 101.366 121.201 102.231 120.922C103.972 120.355 105.645 119.593 107.222 118.65C110.228 116.896 112.859 114.543 114.955 111.731C117.052 108.918 118.572 105.704 119.425 102.281C120.158 99.2814 120.363 96.1735 120.033 93.101C119.754 90.4752 119.113 87.9027 118.128 85.4602C117.372 83.5539 116.406 81.7411 115.25 80.0567C114.789 79.341 114.308 78.7455 113.901 78.2188C113.568 77.7631 113.206 77.33 112.819 76.9219L111.869 75.8784L112.925 76.8117C113.359 77.1766 113.768 77.5706 114.151 77.9912C114.701 78.5305 115.213 79.1084 115.685 79.7203C117.009 81.3491 118.147 83.1259 119.078 85.0165C121.819 90.4827 122.661 96.7358 121.464 102.753C120.721 106.413 119.254 109.879 117.151 112.94C113.706 117.942 108.772 121.678 103.081 123.597C102.103 123.923 101.108 124.195 100.1 124.411C99.5742 124.542 99.1082 124.605 98.6283 124.683L97.8634 124.805L97.1013 124.887C93.0413 125.255 88.9512 124.724 85.1114 123.329C83.2148 122.663 81.4134 121.742 79.7544 120.592C78.1193 119.456 76.6976 118.191 75.3082 117.023C74.0086 115.881 72.6134 114.858 71.1385 113.965C70.4345 113.553 69.6956 113.205 68.9308 112.927C68.1767 112.658 67.41 112.427 66.6333 112.236C63.6701 111.522 60.6203 111.254 57.581 111.439C55.0024 111.548 52.4562 112.068 50.0345 112.977C49.047 113.387 48.1203 113.934 47.2809 114.603C46.5314 115.223 45.8634 115.963 45.2024 116.513C44.1958 117.393 43.1195 118.186 41.9842 118.885C41.2067 119.369 40.7744 119.596 40.7744 119.596Z" fill="black"/>
</g>
</g>
<g style="mix-blend-mode:multiply" opacity="0.25">
<g style="mix-blend-mode:multiply" opacity="0.25">
<path d="M118.175 14.8291L118.617 15.5663C119.028 16.2699 119.403 16.9952 119.74 17.7391C120.959 20.4339 121.704 23.3265 121.939 26.2846L121.985 26.986L121.997 27.1635C122 27.2111 122 27.2589 121.997 27.3066V27.3925V27.7417C121.988 28.2094 121.98 28.6865 121.971 29.1731C121.963 29.6598 121.951 30.1522 121.935 30.6503C121.9 31.1556 121.783 31.6953 121.709 32.2249C121.396 34.4722 120.787 36.6662 119.9 38.7478C119.452 39.8517 118.918 40.9166 118.301 41.9326C117.713 43.0019 117.025 44.0115 116.248 44.9472L115.087 46.3857C114.673 46.8423 114.214 47.2589 113.778 47.6983C113.341 48.1377 112.902 48.58 112.433 48.9866L110.964 50.1317C108.983 51.6077 106.822 52.8158 104.536 53.7259C103.417 54.1702 102.271 54.5394 101.105 54.831C99.9552 55.1316 98.7777 55.2403 97.6465 55.4436C96.5026 55.5638 95.363 55.5595 94.2599 55.5867C93.1554 55.5567 92.0803 55.3763 91.0319 55.279C89.0871 54.98 87.186 54.4372 85.3717 53.6629C83.8254 53.0857 82.3528 52.3206 80.9859 51.3842C79.9316 50.6832 78.9351 49.8958 78.0063 49.0295C77.4115 48.4804 76.849 47.896 76.3221 47.2789L75.7607 46.6233C78.728 49.1556 82.1827 51.0252 85.9022 52.1113C86.7405 52.4027 87.6029 52.6164 88.479 52.7497C89.4036 52.9329 90.3368 53.0686 91.2747 53.1562C92.2431 53.172 93.2396 53.2736 94.2444 53.2278C95.2521 53.1076 96.2879 53.1033 97.3237 52.9415C98.3482 52.7039 99.4092 52.5693 100.441 52.2487L101.985 51.7291C102.515 51.5856 103.032 51.3939 103.528 51.1566C105.586 50.3017 107.526 49.1804 109.302 47.82L110.65 46.808C111.071 46.4473 111.466 46.0393 111.878 45.6629C112.289 45.2864 112.703 44.9028 113.082 44.4948L114.147 43.2066C114.857 42.3688 115.505 41.4779 116.084 40.5413C116.682 39.6443 117.207 38.6988 117.654 37.7143C118.116 36.7743 118.509 35.8012 118.832 34.8028C119.182 33.872 119.452 32.9117 119.637 31.9329C119.74 31.4562 119.883 31.0096 119.95 30.523C120.018 30.0363 120.053 29.5353 120.102 29.0543C120.151 28.5734 120.209 28.0996 120.261 27.6344L120.3 27.288L120.31 27.2007C120.31 27.2866 120.31 27.1735 120.31 27.1735V27.0074L120.329 26.3476C120.361 23.5054 119.985 20.6736 119.214 17.9424C118.926 16.8853 118.579 15.8457 118.175 14.8291Z" fill="black"/>
</g>
</g>
<g style="mix-blend-mode:screen" opacity="0.6">
<g style="mix-blend-mode:screen" opacity="0.6">
<path d="M107.587 3.53525C107.587 3.53525 106.731 3.23463 105.257 2.66207C104.555 2.36148 103.601 2.17541 102.577 1.87482C102.057 1.7603 101.496 1.64581 100.906 1.53129C100.317 1.44541 99.6854 1.34521 99.0398 1.25933C98.3942 1.21639 97.7065 1.15912 97.0048 1.11618C96.303 1.1305 95.5873 1.07324 94.8434 1.11618C93.292 1.18491 91.7484 1.37633 90.226 1.68873C89.4401 1.81756 88.6541 2.07521 87.8541 2.27561C87.0822 2.56189 86.2682 2.7766 85.4963 3.12013C83.9143 3.7396 82.3959 4.51629 80.9631 5.43898C80.2754 5.92566 79.5035 6.36942 78.886 6.89904L77.9035 7.68629L76.9211 8.58809C73.5319 11.7743 71.0041 15.7968 69.581 20.2683C68.9083 22.3318 68.452 24.4622 68.2196 26.6237C68.1354 27.411 68.0652 28.0551 68.0512 28.4845C68.0372 28.914 68.0091 29.143 68.0091 29.143C68.0091 29.143 67.967 28.914 67.8968 28.4845C67.8547 28.2841 67.8266 28.0122 67.7705 27.7116V27.6586C67.7588 27.5206 67.7541 27.3821 67.7565 27.2435C67.7562 22.4989 68.9712 17.8364 71.281 13.7179C73.5908 9.59939 76.9154 6.16768 80.9255 3.76262C84.9356 1.35755 89.4921 0.062557 94.1439 0.00585209C98.7957 -0.0508529 103.381 1.13269 107.447 3.43932C107.548 3.5066 107.587 3.53525 107.587 3.53525Z" fill="white"/>
</g>
</g>
<defs>
<linearGradient id="paint0_linear_2_2659" x1="60.5806" y1="3.34124" x2="60.5806" y2="122.603" gradientUnits="userSpaceOnUse">
<stop stop-color="#F55233"/>
<stop offset="0.195" stop-color="#EF5032"/>
<stop offset="0.452" stop-color="#DE4A2F"/>
<stop offset="0.743" stop-color="#C3412A"/>
<stop offset="1" stop-color="#A53826"/>
</linearGradient>
<linearGradient id="paint1_linear_2_2659" x1="94.4601" y1="-0.540352" x2="94.4601" y2="52.3545" gradientUnits="userSpaceOnUse">
<stop stop-color="#F55233"/>
<stop offset="0.195" stop-color="#EF5032"/>
<stop offset="0.452" stop-color="#DE4A2F"/>
<stop offset="0.743" stop-color="#C3412A"/>
<stop offset="1" stop-color="#A53826"/>
</linearGradient>
</defs>
</svg>
