<svg width="132" height="80" viewBox="0 0 132 80" fill="none" xmlns="http://www.w3.org/2000/svg">
<path d="M132 0L89.2327 66.354L86.9494 69.8947L84.2658 74.0688L84.0021 74.098L71.0103 55.9538L73.3312 52.3321L91.1332 24.6795L132 0Z" fill="url(#paint0_linear_2_2697)"/>
<g style="mix-blend-mode:multiply" opacity="0.16">
<g style="mix-blend-mode:multiply" opacity="0.16">
<path d="M89.2327 66.354L84.2658 74.0677L84.0021 74.0969L71.0103 55.9538L73.3301 52.3321C77.369 55.8673 84.1693 61.862 89.2327 66.354Z" fill="black"/>
</g>
</g>
<path d="M61.4447 42.6053L84.0016 74.0925L60.2519 76.9424L49.1948 61.5073L61.4447 42.6053Z" fill="url(#paint1_linear_2_2697)"/>
<g style="mix-blend-mode:screen" opacity="0.3">
<g style="mix-blend-mode:screen" opacity="0.3">
<path d="M131.999 0L89.2316 66.354L86.9484 69.8947C85.9828 71.3001 84.9913 72.7055 84.0045 74.0969C85.8674 70.9401 87.7727 67.8006 89.6826 64.6621C91.5714 61.5182 93.492 58.3898 95.4443 55.277C99.342 49.0488 103.175 42.774 107.142 36.5739C111.067 30.3597 115.067 24.1865 119.041 17.9994C122.312 12.9917 125.587 7.98253 128.867 2.97195C126.675 4.28009 124.487 5.56662 122.266 6.84125L111.936 12.8468C108.497 14.8649 105.043 16.8501 101.573 18.8026C98.1067 20.78 94.6402 22.7573 91.137 24.6838L131.999 0Z" fill="white"/>
</g>
</g>
<g style="mix-blend-mode:screen" opacity="0.3">
<g style="mix-blend-mode:screen" opacity="0.3">
<path d="M61.4446 42.6053L82.1798 71.5509C82.3541 71.8374 82.5201 72.1141 82.6838 72.4071C81.677 71.2449 80.715 70.0558 79.7341 68.8633C78.772 67.6741 77.7794 66.4849 76.8503 65.2794C75.8918 64.074 74.9521 62.8717 74.0148 61.6522C73.0963 60.437 72.1566 59.2348 71.2417 58.0024C69.4095 55.5519 67.6039 53.0884 65.825 50.6119C64.3366 48.5794 62.8977 46.5038 61.454 44.4497C59.6524 47.1164 57.819 49.7709 55.9537 52.4132C54.8563 53.9473 53.7765 55.4845 52.6272 56.9905C51.4968 58.504 50.3805 60.0305 49.1982 61.5127L61.4446 42.6053Z" fill="white"/>
</g>
</g>
<g style="mix-blend-mode:screen" opacity="0.15">
<g style="mix-blend-mode:screen" opacity="0.15">
<path d="M93.3517 26.0731L122.03 9.29974L89.4576 60.3442L93.3517 26.0731Z" fill="white"/>
</g>
</g>
<g style="mix-blend-mode:screen" opacity="0.15">
<g style="mix-blend-mode:screen" opacity="0.15">
<path d="M51.4096 61.5561L61.5718 48.1655L79.2207 71.4223L51.4096 61.5561Z" fill="white"/>
</g>
</g>
<path d="M0.00390625 79.9759L42.7709 13.6262L45.0541 10.0856L47.7377 5.91142L48.0015 5.88222L60.9956 24.021L58.6747 27.6416L40.8644 55.291L0.00390625 79.9759Z" fill="url(#paint2_linear_2_2697)"/>
<g style="mix-blend-mode:multiply" opacity="0.16">
<g style="mix-blend-mode:multiply" opacity="0.16">
<path d="M42.7666 13.622L47.7335 5.90719L47.9972 5.87799L60.9914 24.0168L58.6704 27.6385C54.6338 24.0979 47.83 18.1085 42.7666 13.622Z" fill="black"/>
</g>
</g>
<path d="M70.5534 37.3652L47.9965 5.87802L71.7451 3.02821L82.8023 18.4631L70.5534 37.3652Z" fill="url(#paint3_linear_2_2697)"/>
<g style="mix-blend-mode:multiply" opacity="0.16">
<g style="mix-blend-mode:multiply" opacity="0.16">
<path d="M0.00390625 79.9761L42.7709 13.6275L45.0541 10.0869C46.0197 8.68144 47.01 7.276 47.9979 5.88354C46.1339 9.04037 44.2298 12.1799 42.3199 15.3194C40.4311 18.4626 38.5105 21.5906 36.5582 24.7034C32.6605 30.9317 28.8276 37.2064 24.8593 43.4066C20.9358 49.6208 16.9357 55.7939 12.9603 61.9811C9.68914 66.9888 6.41442 71.998 3.13616 77.0085C5.32755 75.7003 7.51539 74.4138 9.73623 73.1403L20.0668 67.1336C23.5044 65.1156 26.9585 63.1303 30.4291 61.1778C33.8958 59.2005 37.3624 57.2231 40.8656 55.2966L0.00390625 79.9761Z" fill="black"/>
</g>
</g>
<g style="mix-blend-mode:multiply" opacity="0.3">
<g style="mix-blend-mode:multiply" opacity="0.3">
<path d="M70.5538 37.3653L49.8138 8.41976C49.6407 8.13327 49.4735 7.8565 49.311 7.56352C50.3178 8.72571 51.2799 9.91495 52.2549 11.1074C53.2169 12.2966 54.2084 13.4858 55.1386 14.6913C56.0972 15.8967 57.0367 17.0989 57.974 18.3173C58.8913 19.5336 59.8323 20.7357 60.7461 21.9682C62.5799 24.4188 64.3854 26.8822 66.1627 29.3587C67.6511 31.3911 69.0901 33.4669 70.5338 35.521C72.3354 32.8542 74.1683 30.1998 76.0327 27.5575C77.1314 26.0234 78.2113 24.4861 79.3594 22.9801C80.5075 21.4741 81.6073 19.94 82.7884 18.4579L70.5538 37.3653Z" fill="black"/>
</g>
</g>
<g style="mix-blend-mode:screen" opacity="0.3">
<g style="mix-blend-mode:screen" opacity="0.3">
<path d="M38.6458 53.8975L9.96927 70.6709L42.5399 19.6265C42.5399 19.6265 42.5246 20.2675 38.6458 53.8975Z" fill="white"/>
</g>
</g>
<g style="mix-blend-mode:screen" opacity="0.2">
<g style="mix-blend-mode:screen" opacity="0.2">
<path d="M80.5869 18.4145L70.42 31.8051L52.7711 8.54829L80.5869 18.4145Z" fill="white"/>
</g>
</g>
<defs>
<linearGradient id="paint0_linear_2_2697" x1="202.991" y1="388.719" x2="287.462" y2="388.719" gradientUnits="userSpaceOnUse">
<stop stop-color="#233B55"/>
<stop offset="1" stop-color="#131D32"/>
</linearGradient>
<linearGradient id="paint1_linear_2_2697" x1="192.216" y1="370.525" x2="192.216" y2="404.552" gradientUnits="userSpaceOnUse">
<stop stop-color="#233B55"/>
<stop offset="1" stop-color="#131D32"/>
</linearGradient>
<linearGradient id="paint2_linear_2_2697" x1="-1552.36" y1="326.634" x2="-1467.88" y2="326.634" gradientUnits="userSpaceOnUse">
<stop stop-color="#F80300"/>
<stop offset="0.033" stop-color="#F81000"/>
<stop offset="0.158" stop-color="#F93F00"/>
<stop offset="0.288" stop-color="#FA6800"/>
<stop offset="0.419" stop-color="#FA8900"/>
<stop offset="0.554" stop-color="#FBA300"/>
<stop offset="0.693" stop-color="#FBB500"/>
<stop offset="0.838" stop-color="#FBC000"/>
<stop offset="1" stop-color="#FCC400"/>
</linearGradient>
<linearGradient id="paint3_linear_2_2697" x1="-1563.12" y1="308.456" x2="-1563.12" y2="342.484" gradientUnits="userSpaceOnUse">
<stop stop-color="#F80300"/>
<stop offset="0.033" stop-color="#F81000"/>
<stop offset="0.158" stop-color="#F93F00"/>
<stop offset="0.288" stop-color="#FA6800"/>
<stop offset="0.419" stop-color="#FA8900"/>
<stop offset="0.554" stop-color="#FBA300"/>
<stop offset="0.693" stop-color="#FBB500"/>
<stop offset="0.838" stop-color="#FBC000"/>
<stop offset="1" stop-color="#FCC400"/>
</linearGradient>
</defs>
</svg>
